<svg xmlns="http://www.w3.org/2000/svg" viewBox="0 0 128 128">
  <title>mangaworld-sync</title>
  <rect width="128" height="128" rx="24" fill="#101413"/>
  <g transform="translate(10 28) scale(.21) translate(-2165 0)">
    <path fill="#ee6c4d" d="M2348.77,323.73h0a27,27,0,0,1-36.94-9.9L2219.14,153.3v147a27,27,0,1,1-54.09,0V54.71q0-.73,0-1.45A27,27,0,0,1,2178.61,29h0a27,27,0,0,1,36.94,9.9L2358.67,286.8A27,27,0,0,1,2348.77,323.73Z"/>
    <rect fill="#ee6c4d" x="2333.94" y="6.22" width="54.09" height="340.31" rx="27.04" ry="27.04" transform="translate(228.12 1204.12) rotate(-30)"/>
    <rect fill="#3d5a80" x="2431.29" y="6.22" width="54.09" height="340.31" rx="27.04" ry="27.04" transform="translate(241.16 1252.8) rotate(-30)"/>
    <rect fill="#3d5a80" x="2528.46" y="6.22" width="54.09" height="340.31" rx="27.04" ry="27.04" transform="translate(254.18 1301.38) rotate(-30)"/>
    <rect fill="#3d5a80" x="2625.55" y="6.22" width="54.09" height="340.31" rx="27.04" ry="27.04" transform="translate(267.19 1349.93) rotate(-30)"/>
  </g>
</svg>
